<svg width="1440" height="560" viewBox="0 0 1440 560" fill="none" xmlns="http://www.w3.org/2000/svg">
  <defs>
    <pattern id="dots" x="0" y="0" width="7" height="7" patternUnits="userSpaceOnUse">
      <circle cx="1.8" cy="1.8" r="1.05" fill="#C7CEE8" opacity="0.6"/>
    </pattern>
    <clipPath id="mapClip">
      <path d="M 48.0 59.1 L 100.0 46.7 L 168.0 52.9 L 236.0 59.1 L 288.0 74.7 L 324.0 93.3 L 356.0 115.1 L 384.0 136.9 L 416.0 152.4 L 456.0 133.8 L 476.0 105.8 L 456.0 84.0 L 404.0 68.4 L 340.0 59.1 L 256.0 56.0 L 168.0 56.0 L 104.0 62.2 L 48.0 59.1 Z"/>
      <path d="M 396.0 239.6 L 420.0 258.2 L 444.0 295.6 L 468.0 326.7 L 484.0 364.0 L 496.0 404.4 L 504.0 438.7 L 532.0 444.9 L 548.0 416.9 L 556.0 382.7 L 548.0 336.0 L 528.0 292.4 L 500.0 261.3 L 464.0 233.3 L 432.0 224.0 L 396.0 239.6 Z"/>
      <path d="M 676.0 168.0 L 696.0 146.2 L 724.0 127.6 L 760.0 102.7 L 792.0 93.3 L 832.0 93.3 L 868.0 102.7 L 856.0 130.7 L 816.0 146.2 L 776.0 158.7 L 744.0 161.8 L 712.0 164.9 L 676.0 168.0 Z"/>
      <path d="M 648.0 174.2 L 688.0 189.8 L 728.0 208.4 L 760.0 236.4 L 796.0 264.4 L 828.0 301.8 L 844.0 342.2 L 832.0 379.6 L 800.0 388.9 L 760.0 376.4 L 728.0 354.7 L 704.0 317.3 L 680.0 273.8 L 660.0 227.1 L 648.0 174.2 Z"/>
      <path d="M 824.0 258.2 L 868.0 233.3 L 916.0 211.6 L 968.0 192.9 L 1024.0 177.3 L 1072.0 152.4 L 1136.0 130.7 L 1192.0 118.2 L 1256.0 105.8 L 1300.0 124.4 L 1324.0 155.6 L 1292.0 183.6 L 1244.0 205.3 L 1192.0 224.0 L 1148.0 239.6 L 1104.0 258.2 L 1064.0 276.9 L 1012.0 283.1 L 964.0 273.8 L 920.0 261.3 L 876.0 255.1 L 824.0 258.2 Z"/>
      <path d="M 1164.0 314.2 L 1196.0 323.6 L 1240.0 336.0 L 1280.0 354.7 L 1308.0 385.8 L 1288.0 410.7 L 1240.0 413.8 L 1192.0 401.3 L 1164.0 376.4 L 1144.0 348.4 L 1164.0 314.2 Z"/>
      <path d="M 508.0 93.3 L 536.0 71.6 L 576.0 52.9 L 604.0 52.9 L 620.0 74.7 L 596.0 99.6 L 552.0 108.9 L 508.0 93.3 Z"/>
    </clipPath>
  </defs>

  <g opacity="0.75">
    <path d="M 48.0 59.1 L 100.0 46.7 L 168.0 52.9 L 236.0 59.1 L 288.0 74.7 L 324.0 93.3 L 356.0 115.1 L 384.0 136.9 L 416.0 152.4 L 456.0 133.8 L 476.0 105.8 L 456.0 84.0 L 404.0 68.4 L 340.0 59.1 L 256.0 56.0 L 168.0 56.0 L 104.0 62.2 L 48.0 59.1 Z" fill="#E8EDF8"/>
    <path d="M 396.0 239.6 L 420.0 258.2 L 444.0 295.6 L 468.0 326.7 L 484.0 364.0 L 496.0 404.4 L 504.0 438.7 L 532.0 444.9 L 548.0 416.9 L 556.0 382.7 L 548.0 336.0 L 528.0 292.4 L 500.0 261.3 L 464.0 233.3 L 432.0 224.0 L 396.0 239.6 Z" fill="#E8EDF8"/>
    <path d="M 676.0 168.0 L 696.0 146.2 L 724.0 127.6 L 760.0 102.7 L 792.0 93.3 L 832.0 93.3 L 868.0 102.7 L 856.0 130.7 L 816.0 146.2 L 776.0 158.7 L 744.0 161.8 L 712.0 164.9 L 676.0 168.0 Z" fill="#E8EDF8"/>
    <path d="M 648.0 174.2 L 688.0 189.8 L 728.0 208.4 L 760.0 236.4 L 796.0 264.4 L 828.0 301.8 L 844.0 342.2 L 832.0 379.6 L 800.0 388.9 L 760.0 376.4 L 728.0 354.7 L 704.0 317.3 L 680.0 273.8 L 660.0 227.1 L 648.0 174.2 Z" fill="#E8EDF8"/>
    <path d="M 824.0 258.2 L 868.0 233.3 L 916.0 211.6 L 968.0 192.9 L 1024.0 177.3 L 1072.0 152.4 L 1136.0 130.7 L 1192.0 118.2 L 1256.0 105.8 L 1300.0 124.4 L 1324.0 155.6 L 1292.0 183.6 L 1244.0 205.3 L 1192.0 224.0 L 1148.0 239.6 L 1104.0 258.2 L 1064.0 276.9 L 1012.0 283.1 L 964.0 273.8 L 920.0 261.3 L 876.0 255.1 L 824.0 258.2 Z" fill="#E8EDF8"/>
    <path d="M 1164.0 314.2 L 1196.0 323.6 L 1240.0 336.0 L 1280.0 354.7 L 1308.0 385.8 L 1288.0 410.7 L 1240.0 413.8 L 1192.0 401.3 L 1164.0 376.4 L 1144.0 348.4 L 1164.0 314.2 Z" fill="#E8EDF8"/>
    <path d="M 508.0 93.3 L 536.0 71.6 L 576.0 52.9 L 604.0 52.9 L 620.0 74.7 L 596.0 99.6 L 552.0 108.9 L 508.0 93.3 Z" fill="#E8EDF8"/>
  </g>

  <g clip-path="url(#mapClip)" opacity="0.9">
    <rect width="1440" height="560" fill="url(#dots)"/>
  </g>

  <g opacity="0.45" stroke="#C7CEE8" stroke-width="1.2">
    <path d="M 48.0 59.1 L 100.0 46.7 L 168.0 52.9 L 236.0 59.1 L 288.0 74.7 L 324.0 93.3 L 356.0 115.1 L 384.0 136.9 L 416.0 152.4 L 456.0 133.8 L 476.0 105.8 L 456.0 84.0 L 404.0 68.4 L 340.0 59.1 L 256.0 56.0 L 168.0 56.0 L 104.0 62.2 L 48.0 59.1 Z"/>
    <path d="M 396.0 239.6 L 420.0 258.2 L 444.0 295.6 L 468.0 326.7 L 484.0 364.0 L 496.0 404.4 L 504.0 438.7 L 532.0 444.9 L 548.0 416.9 L 556.0 382.7 L 548.0 336.0 L 528.0 292.4 L 500.0 261.3 L 464.0 233.3 L 432.0 224.0 L 396.0 239.6 Z"/>
    <path d="M 676.0 168.0 L 696.0 146.2 L 724.0 127.6 L 760.0 102.7 L 792.0 93.3 L 832.0 93.3 L 868.0 102.7 L 856.0 130.7 L 816.0 146.2 L 776.0 158.7 L 744.0 161.8 L 712.0 164.9 L 676.0 168.0 Z"/>
    <path d="M 648.0 174.2 L 688.0 189.8 L 728.0 208.4 L 760.0 236.4 L 796.0 264.4 L 828.0 301.8 L 844.0 342.2 L 832.0 379.6 L 800.0 388.9 L 760.0 376.4 L 728.0 354.7 L 704.0 317.3 L 680.0 273.8 L 660.0 227.1 L 648.0 174.2 Z"/>
    <path d="M 824.0 258.2 L 868.0 233.3 L 916.0 211.6 L 968.0 192.9 L 1024.0 177.3 L 1072.0 152.4 L 1136.0 130.7 L 1192.0 118.2 L 1256.0 105.8 L 1300.0 124.4 L 1324.0 155.6 L 1292.0 183.6 L 1244.0 205.3 L 1192.0 224.0 L 1148.0 239.6 L 1104.0 258.2 L 1064.0 276.9 L 1012.0 283.1 L 964.0 273.8 L 920.0 261.3 L 876.0 255.1 L 824.0 258.2 Z"/>
    <path d="M 1164.0 314.2 L 1196.0 323.6 L 1240.0 336.0 L 1280.0 354.7 L 1308.0 385.8 L 1288.0 410.7 L 1240.0 413.8 L 1192.0 401.3 L 1164.0 376.4 L 1144.0 348.4 L 1164.0 314.2 Z"/>
    <path d="M 508.0 93.3 L 536.0 71.6 L 576.0 52.9 L 604.0 52.9 L 620.0 74.7 L 596.0 99.6 L 552.0 108.9 L 508.0 93.3 Z"/>
  </g>
</svg>
