<svg xmlns="http://www.w3.org/2000/svg" viewBox="0 0 24 24" width="24" height="24">
  <circle cx="12" cy="12" r="11" fill="#000" class="theme-dark:fill-white"/>
  <path d="M12.87 6.24c2.01-.36 3.93.72 4.65 2.54.72-.36 1.62-.36 2.34.18.72.54 1.08 1.44.9 2.34.9.54 1.44 1.44 1.44 2.52 0 1.08-.54 1.98-1.44 2.52.18.9-.18 1.8-.9 2.34-.72.54-1.62.54-2.34.18-.72 1.8-2.64 2.88-4.65 2.52-1.08 1.26-2.7 1.8-4.32 1.44-1.62-.36-2.88-1.62-3.42-3.24-.9-.18-1.62-.72-2.16-1.44-.54-.72-.72-1.62-.54-2.52-.9-.54-1.44-1.44-1.44-2.52s.54-1.98 1.44-2.52c-.18-.9.18-1.8.9-2.34.72-.54 1.62-.54 2.34-.18.72-1.8 2.64-2.88 4.65-2.52" fill="none" stroke="#fff" stroke-width="1.2" class="theme-dark:stroke-black"/>
</svg>
